<mxfile host="app.diagrams.net" modified="2023-11-26T14:00:32.071Z" agent="Mozilla/5.0 (Windows NT 10.0; Win64; x64) AppleWebKit/537.36 (KHTML, like Gecko) Chrome/119.0.0.0 Safari/537.36" etag="3Hhfccp_GugER_awdxsM" version="22.1.4" type="github">
  <diagram name="Page-1" id="ZSxHzyD2I87OIuJ_c9HW">
    <mxGraphModel dx="5293" dy="3927" grid="1" gridSize="10" guides="1" tooltips="1" connect="1" arrows="1" fold="1" page="1" pageScale="1" pageWidth="850" pageHeight="1100" math="0" shadow="0">
      <root>
        <mxCell id="0" />
        <mxCell id="1" parent="0" />
        <mxCell id="xQGyqwbRE91OUpETnVlU-1" value="0&lt;br&gt;Room Scheduling and Reservation System" style="html=1;dashed=0;whiteSpace=wrap;shape=mxgraph.dfd.start;" parent="1" vertex="1">
          <mxGeometry x="340" y="155" width="180" height="80" as="geometry" />
        </mxCell>
        <mxCell id="xQGyqwbRE91OUpETnVlU-9" value="Faculty" style="html=1;dashed=0;whiteSpace=wrap;" parent="1" vertex="1">
          <mxGeometry x="50" y="170" width="100" height="50" as="geometry" />
        </mxCell>
        <mxCell id="xQGyqwbRE91OUpETnVlU-10" value="Secretary" style="html=1;dashed=0;whiteSpace=wrap;" parent="1" vertex="1">
          <mxGeometry x="380" y="-45" width="100" height="50" as="geometry" />
        </mxCell>
        <mxCell id="xQGyqwbRE91OUpETnVlU-12" style="edgeStyle=orthogonalEdgeStyle;rounded=0;orthogonalLoop=1;jettySize=auto;html=1;exitX=1;exitY=0.5;exitDx=0;exitDy=0;entryX=0;entryY=0.5;entryDx=0;entryDy=0;entryPerimeter=0;" parent="1" source="xQGyqwbRE91OUpETnVlU-9" target="xQGyqwbRE91OUpETnVlU-1" edge="1">
          <mxGeometry relative="1" as="geometry" />
        </mxCell>
        <mxCell id="xQGyqwbRE91OUpETnVlU-13" value="reservation request" style="edgeLabel;html=1;align=center;verticalAlign=middle;resizable=0;points=[];" parent="xQGyqwbRE91OUpETnVlU-12" vertex="1" connectable="0">
          <mxGeometry x="0.1566" y="-1" relative="1" as="geometry">
            <mxPoint x="-10" y="-1" as="offset" />
          </mxGeometry>
        </mxCell>
        <mxCell id="xQGyqwbRE91OUpETnVlU-14" style="edgeStyle=orthogonalEdgeStyle;rounded=0;orthogonalLoop=1;jettySize=auto;html=1;exitX=1;exitY=0.25;exitDx=0;exitDy=0;entryX=0.02;entryY=0.334;entryDx=0;entryDy=0;entryPerimeter=0;" parent="1" source="xQGyqwbRE91OUpETnVlU-9" target="xQGyqwbRE91OUpETnVlU-1" edge="1">
          <mxGeometry relative="1" as="geometry" />
        </mxCell>
        <mxCell id="xQGyqwbRE91OUpETnVlU-15" value="employee credentials" style="edgeLabel;html=1;align=center;verticalAlign=middle;resizable=0;points=[];" parent="xQGyqwbRE91OUpETnVlU-14" vertex="1" connectable="0">
          <mxGeometry x="0.0767" y="2" relative="1" as="geometry">
            <mxPoint as="offset" />
          </mxGeometry>
        </mxCell>
        <mxCell id="xQGyqwbRE91OUpETnVlU-18" style="edgeStyle=orthogonalEdgeStyle;rounded=0;orthogonalLoop=1;jettySize=auto;html=1;exitX=1;exitY=0.75;exitDx=0;exitDy=0;entryX=0.001;entryY=0.657;entryDx=0;entryDy=0;entryPerimeter=0;" parent="1" source="xQGyqwbRE91OUpETnVlU-9" target="xQGyqwbRE91OUpETnVlU-1" edge="1">
          <mxGeometry relative="1" as="geometry" />
        </mxCell>
        <mxCell id="xQGyqwbRE91OUpETnVlU-21" value="schedule detail request" style="edgeLabel;html=1;align=center;verticalAlign=middle;resizable=0;points=[];" parent="xQGyqwbRE91OUpETnVlU-18" vertex="1" connectable="0">
          <mxGeometry x="0.0651" y="-2" relative="1" as="geometry">
            <mxPoint as="offset" />
          </mxGeometry>
        </mxCell>
        <mxCell id="xQGyqwbRE91OUpETnVlU-24" style="edgeStyle=orthogonalEdgeStyle;rounded=0;orthogonalLoop=1;jettySize=auto;html=1;exitX=0;exitY=0;exitDx=11.719999999999999;exitDy=68.28;exitPerimeter=0;" parent="1" source="xQGyqwbRE91OUpETnVlU-1" edge="1">
          <mxGeometry relative="1" as="geometry">
            <mxPoint x="150" y="219" as="targetPoint" />
            <Array as="points">
              <mxPoint x="250" y="223" />
              <mxPoint x="250" y="219" />
            </Array>
          </mxGeometry>
        </mxCell>
        <mxCell id="xQGyqwbRE91OUpETnVlU-26" value="schedule information" style="edgeLabel;html=1;align=center;verticalAlign=middle;resizable=0;points=[];" parent="xQGyqwbRE91OUpETnVlU-24" vertex="1" connectable="0">
          <mxGeometry x="0.0368" y="3" relative="1" as="geometry">
            <mxPoint as="offset" />
          </mxGeometry>
        </mxCell>
        <mxCell id="xQGyqwbRE91OUpETnVlU-27" style="edgeStyle=orthogonalEdgeStyle;rounded=0;orthogonalLoop=1;jettySize=auto;html=1;" parent="1" edge="1">
          <mxGeometry relative="1" as="geometry">
            <mxPoint x="470" y="5" as="sourcePoint" />
            <mxPoint x="470" y="154" as="targetPoint" />
            <Array as="points">
              <mxPoint x="470" y="154" />
            </Array>
          </mxGeometry>
        </mxCell>
        <mxCell id="xQGyqwbRE91OUpETnVlU-30" value="room schedules" style="edgeLabel;html=1;align=center;verticalAlign=middle;resizable=0;points=[];" parent="xQGyqwbRE91OUpETnVlU-27" vertex="1" connectable="0">
          <mxGeometry x="0.0181" relative="1" as="geometry">
            <mxPoint y="-6" as="offset" />
          </mxGeometry>
        </mxCell>
        <mxCell id="xQGyqwbRE91OUpETnVlU-36" style="edgeStyle=orthogonalEdgeStyle;rounded=0;orthogonalLoop=1;jettySize=auto;html=1;exitX=1;exitY=1;exitDx=0;exitDy=0;entryX=0;entryY=0.75;entryDx=0;entryDy=0;" parent="1" edge="1">
          <mxGeometry relative="1" as="geometry">
            <mxPoint x="150" y="532.5" as="sourcePoint" />
            <mxPoint x="335" y="530" as="targetPoint" />
            <Array as="points">
              <mxPoint x="243" y="532.5" />
              <mxPoint x="243" y="530.5" />
            </Array>
          </mxGeometry>
        </mxCell>
        <mxCell id="xQGyqwbRE91OUpETnVlU-37" value="employee credentials" style="edgeLabel;html=1;align=center;verticalAlign=middle;resizable=0;points=[];" parent="xQGyqwbRE91OUpETnVlU-36" vertex="1" connectable="0">
          <mxGeometry x="-0.0376" y="1" relative="1" as="geometry">
            <mxPoint as="offset" />
          </mxGeometry>
        </mxCell>
        <mxCell id="xQGyqwbRE91OUpETnVlU-55" style="edgeStyle=orthogonalEdgeStyle;rounded=0;orthogonalLoop=1;jettySize=auto;html=1;exitX=0.7;exitY=0.982;exitDx=0;exitDy=0;entryX=0;entryY=0.25;entryDx=0;entryDy=0;exitPerimeter=0;" parent="1" source="xQGyqwbRE91OUpETnVlU-31" target="xQGyqwbRE91OUpETnVlU-50" edge="1">
          <mxGeometry relative="1" as="geometry">
            <Array as="points">
              <mxPoint x="120" y="652" />
            </Array>
          </mxGeometry>
        </mxCell>
        <mxCell id="xQGyqwbRE91OUpETnVlU-56" value="room number&lt;br&gt;or employee id" style="edgeLabel;html=1;align=center;verticalAlign=middle;resizable=0;points=[];" parent="xQGyqwbRE91OUpETnVlU-55" vertex="1" connectable="0">
          <mxGeometry x="0.1616" relative="1" as="geometry">
            <mxPoint x="21" y="2" as="offset" />
          </mxGeometry>
        </mxCell>
        <mxCell id="xQGyqwbRE91OUpETnVlU-67" style="edgeStyle=orthogonalEdgeStyle;rounded=0;orthogonalLoop=1;jettySize=auto;html=1;exitX=0.29;exitY=1.04;exitDx=0;exitDy=0;exitPerimeter=0;" parent="1" source="xQGyqwbRE91OUpETnVlU-31" target="xQGyqwbRE91OUpETnVlU-64" edge="1">
          <mxGeometry relative="1" as="geometry">
            <Array as="points">
              <mxPoint x="79" y="560" />
              <mxPoint x="80" y="765" />
            </Array>
          </mxGeometry>
        </mxCell>
        <mxCell id="06z1c9G6Tvmy0coM1B6O-3" value="reservation request" style="edgeLabel;html=1;align=center;verticalAlign=middle;resizable=0;points=[];" parent="xQGyqwbRE91OUpETnVlU-67" vertex="1" connectable="0">
          <mxGeometry x="0.5042" y="-1" relative="1" as="geometry">
            <mxPoint as="offset" />
          </mxGeometry>
        </mxCell>
        <mxCell id="06z1c9G6Tvmy0coM1B6O-6" style="edgeStyle=orthogonalEdgeStyle;rounded=0;orthogonalLoop=1;jettySize=auto;html=1;exitX=0.5;exitY=1;exitDx=0;exitDy=0;" parent="1" source="xQGyqwbRE91OUpETnVlU-31" target="06z1c9G6Tvmy0coM1B6O-2" edge="1">
          <mxGeometry relative="1" as="geometry">
            <Array as="points">
              <mxPoint x="50" y="560" />
              <mxPoint x="50" y="925" />
            </Array>
          </mxGeometry>
        </mxCell>
        <mxCell id="06z1c9G6Tvmy0coM1B6O-7" value="room detail" style="edgeLabel;html=1;align=center;verticalAlign=middle;resizable=0;points=[];" parent="06z1c9G6Tvmy0coM1B6O-6" vertex="1" connectable="0">
          <mxGeometry x="0.5532" y="1" relative="1" as="geometry">
            <mxPoint as="offset" />
          </mxGeometry>
        </mxCell>
        <mxCell id="xQGyqwbRE91OUpETnVlU-31" value="Faculty" style="html=1;dashed=0;whiteSpace=wrap;" parent="1" vertex="1">
          <mxGeometry x="50" y="510" width="100" height="50" as="geometry" />
        </mxCell>
        <mxCell id="xQGyqwbRE91OUpETnVlU-32" value="1.0" style="swimlane;fontStyle=0;childLayout=stackLayout;horizontal=1;startSize=20;fillColor=#ffffff;horizontalStack=0;resizeParent=1;resizeParentMax=0;resizeLast=0;collapsible=0;marginBottom=0;swimlaneFillColor=#ffffff;rounded=1;shadow=0;glass=0;swimlaneLine=1;" parent="1" vertex="1">
          <mxGeometry x="335" y="500" width="110" height="70" as="geometry" />
        </mxCell>
        <mxCell id="xQGyqwbRE91OUpETnVlU-33" value="login user" style="text;strokeColor=none;align=center;fillColor=none;html=1;verticalAlign=middle;whiteSpace=wrap;rounded=0;" parent="xQGyqwbRE91OUpETnVlU-32" vertex="1">
          <mxGeometry y="20" width="110" height="50" as="geometry" />
        </mxCell>
        <mxCell id="xQGyqwbRE91OUpETnVlU-34" value="secretary" style="html=1;dashed=0;whiteSpace=wrap;" parent="1" vertex="1">
          <mxGeometry x="340" y="350" width="100" height="50" as="geometry" />
        </mxCell>
        <mxCell id="xQGyqwbRE91OUpETnVlU-38" style="edgeStyle=orthogonalEdgeStyle;rounded=0;orthogonalLoop=1;jettySize=auto;html=1;" parent="1" edge="1">
          <mxGeometry relative="1" as="geometry">
            <mxPoint x="380" y="400" as="sourcePoint" />
            <mxPoint x="380" y="500" as="targetPoint" />
            <Array as="points">
              <mxPoint x="380" y="400" />
              <mxPoint x="380" y="502" />
            </Array>
          </mxGeometry>
        </mxCell>
        <mxCell id="xQGyqwbRE91OUpETnVlU-39" value="employee credentials" style="edgeLabel;html=1;align=center;verticalAlign=middle;resizable=0;points=[];" parent="xQGyqwbRE91OUpETnVlU-38" vertex="1" connectable="0">
          <mxGeometry x="0.0066" y="-1" relative="1" as="geometry">
            <mxPoint as="offset" />
          </mxGeometry>
        </mxCell>
        <mxCell id="xQGyqwbRE91OUpETnVlU-59" style="edgeStyle=orthogonalEdgeStyle;rounded=0;orthogonalLoop=1;jettySize=auto;html=1;exitX=0;exitY=0.5;exitDx=0;exitDy=0;entryX=1;entryY=0.25;entryDx=0;entryDy=0;" parent="1" source="xQGyqwbRE91OUpETnVlU-40" target="xQGyqwbRE91OUpETnVlU-33" edge="1">
          <mxGeometry relative="1" as="geometry" />
        </mxCell>
        <mxCell id="xQGyqwbRE91OUpETnVlU-60" value="employee information" style="edgeLabel;html=1;align=center;verticalAlign=middle;resizable=0;points=[];" parent="xQGyqwbRE91OUpETnVlU-59" vertex="1" connectable="0">
          <mxGeometry x="0.1482" y="2" relative="1" as="geometry">
            <mxPoint x="8" as="offset" />
          </mxGeometry>
        </mxCell>
        <mxCell id="xQGyqwbRE91OUpETnVlU-40" value="2" style="html=1;dashed=0;whiteSpace=wrap;shape=mxgraph.dfd.dataStoreID;align=left;spacingLeft=3;points=[[0,0],[0.5,0],[1,0],[0,0.5],[1,0.5],[0,1],[0.5,1],[1,1]];" parent="1" vertex="1">
          <mxGeometry x="600" y="520" width="120" height="30" as="geometry" />
        </mxCell>
        <mxCell id="xQGyqwbRE91OUpETnVlU-41" value="Employee" style="text;strokeColor=none;align=center;fillColor=none;html=1;verticalAlign=middle;whiteSpace=wrap;rounded=0;" parent="1" vertex="1">
          <mxGeometry x="650" y="520" width="60" height="30" as="geometry" />
        </mxCell>
        <mxCell id="xQGyqwbRE91OUpETnVlU-49" value="2.0" style="swimlane;fontStyle=0;childLayout=stackLayout;horizontal=1;startSize=20;fillColor=#ffffff;horizontalStack=0;resizeParent=1;resizeParentMax=0;resizeLast=0;collapsible=0;marginBottom=0;swimlaneFillColor=#ffffff;rounded=1;shadow=0;glass=0;swimlaneLine=1;" parent="1" vertex="1">
          <mxGeometry x="335" y="620" width="110" height="70" as="geometry" />
        </mxCell>
        <mxCell id="xQGyqwbRE91OUpETnVlU-50" value="view schedule" style="text;strokeColor=none;align=center;fillColor=none;html=1;verticalAlign=middle;whiteSpace=wrap;rounded=0;" parent="xQGyqwbRE91OUpETnVlU-49" vertex="1">
          <mxGeometry y="20" width="110" height="50" as="geometry" />
        </mxCell>
        <mxCell id="xQGyqwbRE91OUpETnVlU-61" style="edgeStyle=orthogonalEdgeStyle;rounded=0;orthogonalLoop=1;jettySize=auto;html=1;exitX=0;exitY=0.5;exitDx=0;exitDy=0;entryX=1;entryY=0.25;entryDx=0;entryDy=0;" parent="1" source="xQGyqwbRE91OUpETnVlU-57" target="xQGyqwbRE91OUpETnVlU-50" edge="1">
          <mxGeometry relative="1" as="geometry" />
        </mxCell>
        <mxCell id="xQGyqwbRE91OUpETnVlU-62" value="schedule details" style="edgeLabel;html=1;align=center;verticalAlign=middle;resizable=0;points=[];" parent="xQGyqwbRE91OUpETnVlU-61" vertex="1" connectable="0">
          <mxGeometry x="-0.0132" relative="1" as="geometry">
            <mxPoint as="offset" />
          </mxGeometry>
        </mxCell>
        <mxCell id="xQGyqwbRE91OUpETnVlU-57" value="1" style="html=1;dashed=0;whiteSpace=wrap;shape=mxgraph.dfd.dataStoreID;align=left;spacingLeft=3;points=[[0,0],[0.5,0],[1,0],[0,0.5],[1,0.5],[0,1],[0.5,1],[1,1]];" parent="1" vertex="1">
          <mxGeometry x="600" y="640" width="120" height="30" as="geometry" />
        </mxCell>
        <mxCell id="xQGyqwbRE91OUpETnVlU-58" value="Schedule" style="text;strokeColor=none;align=center;fillColor=none;html=1;verticalAlign=middle;whiteSpace=wrap;rounded=0;" parent="1" vertex="1">
          <mxGeometry x="650" y="640" width="60" height="30" as="geometry" />
        </mxCell>
        <mxCell id="xQGyqwbRE91OUpETnVlU-63" value="3.0" style="swimlane;fontStyle=0;childLayout=stackLayout;horizontal=1;startSize=20;fillColor=#ffffff;horizontalStack=0;resizeParent=1;resizeParentMax=0;resizeLast=0;collapsible=0;marginBottom=0;swimlaneFillColor=#ffffff;rounded=1;shadow=0;glass=0;swimlaneLine=1;" parent="1" vertex="1">
          <mxGeometry x="335" y="750" width="110" height="70" as="geometry" />
        </mxCell>
        <mxCell id="xQGyqwbRE91OUpETnVlU-64" value="reserve room" style="text;strokeColor=none;align=center;fillColor=none;html=1;verticalAlign=middle;whiteSpace=wrap;rounded=0;" parent="xQGyqwbRE91OUpETnVlU-63" vertex="1">
          <mxGeometry y="20" width="110" height="50" as="geometry" />
        </mxCell>
        <mxCell id="06z1c9G6Tvmy0coM1B6O-1" value="4.0" style="swimlane;fontStyle=0;childLayout=stackLayout;horizontal=1;startSize=20;fillColor=#ffffff;horizontalStack=0;resizeParent=1;resizeParentMax=0;resizeLast=0;collapsible=0;marginBottom=0;swimlaneFillColor=#ffffff;rounded=1;shadow=0;glass=0;swimlaneLine=1;" parent="1" vertex="1">
          <mxGeometry x="335" y="880" width="110" height="70" as="geometry" />
        </mxCell>
        <mxCell id="06z1c9G6Tvmy0coM1B6O-2" value="vacate room" style="text;strokeColor=none;align=center;fillColor=none;html=1;verticalAlign=middle;whiteSpace=wrap;rounded=0;" parent="06z1c9G6Tvmy0coM1B6O-1" vertex="1">
          <mxGeometry y="20" width="110" height="50" as="geometry" />
        </mxCell>
        <mxCell id="06z1c9G6Tvmy0coM1B6O-4" style="edgeStyle=orthogonalEdgeStyle;rounded=0;orthogonalLoop=1;jettySize=auto;html=1;exitX=1;exitY=0.5;exitDx=0;exitDy=0;" parent="1" source="xQGyqwbRE91OUpETnVlU-64" edge="1">
          <mxGeometry relative="1" as="geometry">
            <mxPoint x="455" y="905" as="sourcePoint" />
            <mxPoint x="650" y="670" as="targetPoint" />
            <Array as="points">
              <mxPoint x="650" y="795" />
            </Array>
          </mxGeometry>
        </mxCell>
        <mxCell id="06z1c9G6Tvmy0coM1B6O-5" value="reservation details" style="edgeLabel;html=1;align=center;verticalAlign=middle;resizable=0;points=[];" parent="06z1c9G6Tvmy0coM1B6O-4" vertex="1" connectable="0">
          <mxGeometry x="-0.3633" y="3" relative="1" as="geometry">
            <mxPoint x="-9" y="3" as="offset" />
          </mxGeometry>
        </mxCell>
        <mxCell id="06z1c9G6Tvmy0coM1B6O-8" style="edgeStyle=orthogonalEdgeStyle;rounded=0;orthogonalLoop=1;jettySize=auto;html=1;exitX=1;exitY=0.5;exitDx=0;exitDy=0;entryX=0.25;entryY=1;entryDx=0;entryDy=0;" parent="1" source="06z1c9G6Tvmy0coM1B6O-2" target="xQGyqwbRE91OUpETnVlU-58" edge="1">
          <mxGeometry relative="1" as="geometry" />
        </mxCell>
        <mxCell id="06z1c9G6Tvmy0coM1B6O-9" value="updated room detail" style="edgeLabel;html=1;align=center;verticalAlign=middle;resizable=0;points=[];" parent="06z1c9G6Tvmy0coM1B6O-8" vertex="1" connectable="0">
          <mxGeometry x="-0.6097" relative="1" as="geometry">
            <mxPoint as="offset" />
          </mxGeometry>
        </mxCell>
        <mxCell id="06z1c9G6Tvmy0coM1B6O-63" style="edgeStyle=orthogonalEdgeStyle;rounded=0;orthogonalLoop=1;jettySize=auto;html=1;exitX=1;exitY=0.25;exitDx=0;exitDy=0;entryX=0;entryY=0.25;entryDx=0;entryDy=0;" parent="1" source="06z1c9G6Tvmy0coM1B6O-56" target="06z1c9G6Tvmy0coM1B6O-60" edge="1">
          <mxGeometry relative="1" as="geometry" />
        </mxCell>
        <mxCell id="06z1c9G6Tvmy0coM1B6O-64" value="room number" style="edgeLabel;html=1;align=center;verticalAlign=middle;resizable=0;points=[];" parent="06z1c9G6Tvmy0coM1B6O-63" vertex="1" connectable="0">
          <mxGeometry x="-0.1032" y="1" relative="1" as="geometry">
            <mxPoint x="-1" as="offset" />
          </mxGeometry>
        </mxCell>
        <mxCell id="06z1c9G6Tvmy0coM1B6O-67" style="edgeStyle=orthogonalEdgeStyle;rounded=0;orthogonalLoop=1;jettySize=auto;html=1;exitX=0.5;exitY=1;exitDx=0;exitDy=0;entryX=0;entryY=0.5;entryDx=0;entryDy=0;" parent="1" source="06z1c9G6Tvmy0coM1B6O-56" target="06z1c9G6Tvmy0coM1B6O-62" edge="1">
          <mxGeometry relative="1" as="geometry" />
        </mxCell>
        <mxCell id="06z1c9G6Tvmy0coM1B6O-68" value="employee id" style="edgeLabel;html=1;align=center;verticalAlign=middle;resizable=0;points=[];" parent="06z1c9G6Tvmy0coM1B6O-67" vertex="1" connectable="0">
          <mxGeometry x="0.2056" y="-1" relative="1" as="geometry">
            <mxPoint as="offset" />
          </mxGeometry>
        </mxCell>
        <mxCell id="06z1c9G6Tvmy0coM1B6O-56" value="Faculty" style="html=1;dashed=0;whiteSpace=wrap;" parent="1" vertex="1">
          <mxGeometry x="1205" y="80" width="100" height="50" as="geometry" />
        </mxCell>
        <mxCell id="06z1c9G6Tvmy0coM1B6O-65" style="edgeStyle=orthogonalEdgeStyle;rounded=0;orthogonalLoop=1;jettySize=auto;html=1;exitX=0;exitY=0.5;exitDx=0;exitDy=0;entryX=1;entryY=0.5;entryDx=0;entryDy=0;" parent="1" source="06z1c9G6Tvmy0coM1B6O-57" target="06z1c9G6Tvmy0coM1B6O-60" edge="1">
          <mxGeometry relative="1" as="geometry" />
        </mxCell>
        <mxCell id="06z1c9G6Tvmy0coM1B6O-66" value="room schedules" style="edgeLabel;html=1;align=center;verticalAlign=middle;resizable=0;points=[];" parent="06z1c9G6Tvmy0coM1B6O-65" vertex="1" connectable="0">
          <mxGeometry x="-0.0685" y="1" relative="1" as="geometry">
            <mxPoint as="offset" />
          </mxGeometry>
        </mxCell>
        <mxCell id="06z1c9G6Tvmy0coM1B6O-57" value="1&amp;nbsp;" style="html=1;dashed=0;whiteSpace=wrap;shape=mxgraph.dfd.dataStoreID;align=left;spacingLeft=3;points=[[0,0],[0.5,0],[1,0],[0,0.5],[1,0.5],[0,1],[0.5,1],[1,1]];" parent="1" vertex="1">
          <mxGeometry x="1775" y="90" width="120" height="30" as="geometry" />
        </mxCell>
        <mxCell id="06z1c9G6Tvmy0coM1B6O-69" style="edgeStyle=orthogonalEdgeStyle;rounded=0;orthogonalLoop=1;jettySize=auto;html=1;exitX=0.25;exitY=1;exitDx=0;exitDy=0;entryX=1;entryY=0.5;entryDx=0;entryDy=0;" parent="1" source="06z1c9G6Tvmy0coM1B6O-58" target="06z1c9G6Tvmy0coM1B6O-62" edge="1">
          <mxGeometry relative="1" as="geometry" />
        </mxCell>
        <mxCell id="06z1c9G6Tvmy0coM1B6O-70" value="employee schedules" style="edgeLabel;html=1;align=center;verticalAlign=middle;resizable=0;points=[];" parent="06z1c9G6Tvmy0coM1B6O-69" vertex="1" connectable="0">
          <mxGeometry x="0.573" relative="1" as="geometry">
            <mxPoint x="37" as="offset" />
          </mxGeometry>
        </mxCell>
        <mxCell id="06z1c9G6Tvmy0coM1B6O-58" value="Schedule" style="text;strokeColor=none;align=center;fillColor=none;html=1;verticalAlign=middle;whiteSpace=wrap;rounded=0;" parent="1" vertex="1">
          <mxGeometry x="1825" y="90" width="60" height="30" as="geometry" />
        </mxCell>
        <mxCell id="06z1c9G6Tvmy0coM1B6O-59" value="2.1" style="swimlane;fontStyle=0;childLayout=stackLayout;horizontal=1;startSize=20;fillColor=#ffffff;horizontalStack=0;resizeParent=1;resizeParentMax=0;resizeLast=0;collapsible=0;marginBottom=0;swimlaneFillColor=#ffffff;rounded=1;shadow=0;glass=0;swimlaneLine=1;" parent="1" vertex="1">
          <mxGeometry x="1460" y="60" width="110" height="70" as="geometry" />
        </mxCell>
        <mxCell id="06z1c9G6Tvmy0coM1B6O-60" value="view room schedule" style="text;strokeColor=none;align=center;fillColor=none;html=1;verticalAlign=middle;whiteSpace=wrap;rounded=0;" parent="06z1c9G6Tvmy0coM1B6O-59" vertex="1">
          <mxGeometry y="20" width="110" height="50" as="geometry" />
        </mxCell>
        <mxCell id="06z1c9G6Tvmy0coM1B6O-61" value="2.2" style="swimlane;fontStyle=0;childLayout=stackLayout;horizontal=1;startSize=20;fillColor=#ffffff;horizontalStack=0;resizeParent=1;resizeParentMax=0;resizeLast=0;collapsible=0;marginBottom=0;swimlaneFillColor=#ffffff;rounded=1;shadow=0;glass=0;swimlaneLine=1;" parent="1" vertex="1">
          <mxGeometry x="1460" y="170" width="110" height="70" as="geometry" />
        </mxCell>
        <mxCell id="06z1c9G6Tvmy0coM1B6O-62" value="view faculty schedule" style="text;strokeColor=none;align=center;fillColor=none;html=1;verticalAlign=middle;whiteSpace=wrap;rounded=0;" parent="06z1c9G6Tvmy0coM1B6O-61" vertex="1">
          <mxGeometry y="20" width="110" height="50" as="geometry" />
        </mxCell>
        <mxCell id="1Rvh8kdgMvsXk_3jxCog-41" style="edgeStyle=orthogonalEdgeStyle;rounded=0;orthogonalLoop=1;jettySize=auto;html=1;exitX=1;exitY=0.5;exitDx=0;exitDy=0;entryX=0;entryY=0.25;entryDx=0;entryDy=0;" parent="1" source="06z1c9G6Tvmy0coM1B6O-73" target="06z1c9G6Tvmy0coM1B6O-75" edge="1">
          <mxGeometry relative="1" as="geometry" />
        </mxCell>
        <mxCell id="1Rvh8kdgMvsXk_3jxCog-44" value="schedule&amp;nbsp;detail" style="edgeLabel;html=1;align=center;verticalAlign=middle;resizable=0;points=[];" parent="1Rvh8kdgMvsXk_3jxCog-41" vertex="1" connectable="0">
          <mxGeometry x="-0.0765" y="1" relative="1" as="geometry">
            <mxPoint as="offset" />
          </mxGeometry>
        </mxCell>
        <mxCell id="06z1c9G6Tvmy0coM1B6O-73" value="Secretary" style="html=1;dashed=0;whiteSpace=wrap;" parent="1" vertex="1">
          <mxGeometry x="1215" y="1020" width="100" height="50" as="geometry" />
        </mxCell>
        <mxCell id="06z1c9G6Tvmy0coM1B6O-74" value="5.1" style="swimlane;fontStyle=0;childLayout=stackLayout;horizontal=1;startSize=20;fillColor=#ffffff;horizontalStack=0;resizeParent=1;resizeParentMax=0;resizeLast=0;collapsible=0;marginBottom=0;swimlaneFillColor=#ffffff;rounded=1;shadow=0;glass=0;swimlaneLine=1;" parent="1" vertex="1">
          <mxGeometry x="1505" y="1010" width="110" height="70" as="geometry" />
        </mxCell>
        <mxCell id="06z1c9G6Tvmy0coM1B6O-75" value="add room schedule" style="text;strokeColor=none;align=center;fillColor=none;html=1;verticalAlign=middle;whiteSpace=wrap;rounded=0;" parent="06z1c9G6Tvmy0coM1B6O-74" vertex="1">
          <mxGeometry y="20" width="110" height="50" as="geometry" />
        </mxCell>
        <mxCell id="06z1c9G6Tvmy0coM1B6O-78" value="1" style="html=1;dashed=0;whiteSpace=wrap;shape=mxgraph.dfd.dataStoreID;align=left;spacingLeft=3;points=[[0,0],[0.5,0],[1,0],[0,0.5],[1,0.5],[0,1],[0.5,1],[1,1]];" parent="1" vertex="1">
          <mxGeometry x="1195" y="1360" width="120" height="30" as="geometry" />
        </mxCell>
        <mxCell id="BkH_cVfhh0AyO2GWpE25-16" style="edgeStyle=orthogonalEdgeStyle;rounded=0;orthogonalLoop=1;jettySize=auto;html=1;exitX=0.164;exitY=0.056;exitDx=0;exitDy=0;entryX=0.5;entryY=1;entryDx=0;entryDy=0;exitPerimeter=0;" edge="1" parent="1" source="06z1c9G6Tvmy0coM1B6O-79" target="BkH_cVfhh0AyO2GWpE25-10">
          <mxGeometry relative="1" as="geometry">
            <Array as="points" />
          </mxGeometry>
        </mxCell>
        <mxCell id="BkH_cVfhh0AyO2GWpE25-18" value="employee detail" style="edgeLabel;html=1;align=center;verticalAlign=middle;resizable=0;points=[];" vertex="1" connectable="0" parent="BkH_cVfhh0AyO2GWpE25-16">
          <mxGeometry x="0.1453" y="1" relative="1" as="geometry">
            <mxPoint as="offset" />
          </mxGeometry>
        </mxCell>
        <mxCell id="06z1c9G6Tvmy0coM1B6O-79" value="Employee" style="text;strokeColor=none;align=center;fillColor=none;html=1;verticalAlign=middle;whiteSpace=wrap;rounded=0;" parent="1" vertex="1">
          <mxGeometry x="1245" y="1360" width="60" height="30" as="geometry" />
        </mxCell>
        <mxCell id="06z1c9G6Tvmy0coM1B6O-80" value="3" style="html=1;dashed=0;whiteSpace=wrap;shape=mxgraph.dfd.dataStoreID;align=left;spacingLeft=3;points=[[0,0],[0.5,0],[1,0],[0,0.5],[1,0.5],[0,1],[0.5,1],[1,1]];" parent="1" vertex="1">
          <mxGeometry x="1815" y="1360" width="120" height="30" as="geometry" />
        </mxCell>
        <mxCell id="BkH_cVfhh0AyO2GWpE25-23" style="edgeStyle=orthogonalEdgeStyle;rounded=0;orthogonalLoop=1;jettySize=auto;html=1;exitX=0.25;exitY=0;exitDx=0;exitDy=0;entryX=0.5;entryY=1;entryDx=0;entryDy=0;" edge="1" parent="1" source="06z1c9G6Tvmy0coM1B6O-81" target="BkH_cVfhh0AyO2GWpE25-14">
          <mxGeometry relative="1" as="geometry">
            <Array as="points">
              <mxPoint x="1875" y="1360" />
            </Array>
          </mxGeometry>
        </mxCell>
        <mxCell id="BkH_cVfhh0AyO2GWpE25-24" value="course detail" style="edgeLabel;html=1;align=center;verticalAlign=middle;resizable=0;points=[];" vertex="1" connectable="0" parent="BkH_cVfhh0AyO2GWpE25-23">
          <mxGeometry x="-0.0059" relative="1" as="geometry">
            <mxPoint as="offset" />
          </mxGeometry>
        </mxCell>
        <mxCell id="06z1c9G6Tvmy0coM1B6O-81" value="Course" style="text;strokeColor=none;align=center;fillColor=none;html=1;verticalAlign=middle;whiteSpace=wrap;rounded=0;" parent="1" vertex="1">
          <mxGeometry x="1865" y="1360" width="60" height="30" as="geometry" />
        </mxCell>
        <mxCell id="06z1c9G6Tvmy0coM1B6O-82" value="2" style="html=1;dashed=0;whiteSpace=wrap;shape=mxgraph.dfd.dataStoreID;align=left;spacingLeft=3;points=[[0,0],[0.5,0],[1,0],[0,0.5],[1,0.5],[0,1],[0.5,1],[1,1]];" parent="1" vertex="1">
          <mxGeometry x="1850" y="1030" width="120" height="30" as="geometry" />
        </mxCell>
        <mxCell id="06z1c9G6Tvmy0coM1B6O-83" value="Schedule" style="text;strokeColor=none;align=center;fillColor=none;html=1;verticalAlign=middle;whiteSpace=wrap;rounded=0;" parent="1" vertex="1">
          <mxGeometry x="1900" y="1030" width="60" height="30" as="geometry" />
        </mxCell>
        <mxCell id="1Rvh8kdgMvsXk_3jxCog-20" style="edgeStyle=orthogonalEdgeStyle;rounded=0;orthogonalLoop=1;jettySize=auto;html=1;exitX=1;exitY=0.5;exitDx=0;exitDy=0;entryX=0;entryY=0.25;entryDx=0;entryDy=0;" parent="1" source="1Rvh8kdgMvsXk_3jxCog-1" target="1Rvh8kdgMvsXk_3jxCog-3" edge="1">
          <mxGeometry relative="1" as="geometry" />
        </mxCell>
        <mxCell id="1Rvh8kdgMvsXk_3jxCog-21" value="room detail and&lt;br&gt;&amp;nbsp;date &amp;amp; time" style="edgeLabel;html=1;align=center;verticalAlign=middle;resizable=0;points=[];" parent="1Rvh8kdgMvsXk_3jxCog-20" vertex="1" connectable="0">
          <mxGeometry x="-0.1409" y="2" relative="1" as="geometry">
            <mxPoint as="offset" />
          </mxGeometry>
        </mxCell>
        <mxCell id="1Rvh8kdgMvsXk_3jxCog-32" style="edgeStyle=orthogonalEdgeStyle;rounded=0;orthogonalLoop=1;jettySize=auto;html=1;exitX=0.75;exitY=1;exitDx=0;exitDy=0;entryX=0;entryY=0.25;entryDx=0;entryDy=0;" parent="1" source="1Rvh8kdgMvsXk_3jxCog-1" target="1Rvh8kdgMvsXk_3jxCog-27" edge="1">
          <mxGeometry relative="1" as="geometry" />
        </mxCell>
        <mxCell id="1Rvh8kdgMvsXk_3jxCog-33" value="acknowldgement" style="edgeLabel;html=1;align=center;verticalAlign=middle;resizable=0;points=[];" parent="1Rvh8kdgMvsXk_3jxCog-32" vertex="1" connectable="0">
          <mxGeometry x="-0.1964" y="4" relative="1" as="geometry">
            <mxPoint as="offset" />
          </mxGeometry>
        </mxCell>
        <mxCell id="1Rvh8kdgMvsXk_3jxCog-1" value="Faculty" style="html=1;dashed=0;whiteSpace=wrap;" parent="1" vertex="1">
          <mxGeometry x="1195" y="350" width="100" height="50" as="geometry" />
        </mxCell>
        <mxCell id="1Rvh8kdgMvsXk_3jxCog-2" value="3.1" style="swimlane;fontStyle=0;childLayout=stackLayout;horizontal=1;startSize=20;fillColor=#ffffff;horizontalStack=0;resizeParent=1;resizeParentMax=0;resizeLast=0;collapsible=0;marginBottom=0;swimlaneFillColor=#ffffff;rounded=1;shadow=0;glass=0;swimlaneLine=1;" parent="1" vertex="1">
          <mxGeometry x="1460" y="340" width="110" height="70" as="geometry" />
        </mxCell>
        <mxCell id="1Rvh8kdgMvsXk_3jxCog-3" value="record reservation" style="text;strokeColor=none;align=center;fillColor=none;html=1;verticalAlign=middle;whiteSpace=wrap;rounded=0;" parent="1Rvh8kdgMvsXk_3jxCog-2" vertex="1">
          <mxGeometry y="20" width="110" height="50" as="geometry" />
        </mxCell>
        <mxCell id="1Rvh8kdgMvsXk_3jxCog-17" style="edgeStyle=orthogonalEdgeStyle;rounded=0;orthogonalLoop=1;jettySize=auto;html=1;exitX=0.75;exitY=0;exitDx=0;exitDy=0;entryX=0.75;entryY=1;entryDx=0;entryDy=0;" parent="1" source="1Rvh8kdgMvsXk_3jxCog-4" target="1Rvh8kdgMvsXk_3jxCog-3" edge="1">
          <mxGeometry relative="1" as="geometry" />
        </mxCell>
        <mxCell id="1Rvh8kdgMvsXk_3jxCog-18" value="room availability" style="edgeLabel;html=1;align=center;verticalAlign=middle;resizable=0;points=[];" parent="1Rvh8kdgMvsXk_3jxCog-17" vertex="1" connectable="0">
          <mxGeometry x="0.1965" y="2" relative="1" as="geometry">
            <mxPoint x="5" y="-6" as="offset" />
          </mxGeometry>
        </mxCell>
        <mxCell id="1Rvh8kdgMvsXk_3jxCog-4" value="3.2" style="swimlane;fontStyle=0;childLayout=stackLayout;horizontal=1;startSize=20;fillColor=#ffffff;horizontalStack=0;resizeParent=1;resizeParentMax=0;resizeLast=0;collapsible=0;marginBottom=0;swimlaneFillColor=#ffffff;rounded=1;shadow=0;glass=0;swimlaneLine=1;" parent="1" vertex="1">
          <mxGeometry x="1460" y="500" width="110" height="70" as="geometry" />
        </mxCell>
        <mxCell id="1Rvh8kdgMvsXk_3jxCog-5" value="check room availability" style="text;strokeColor=none;align=center;fillColor=none;html=1;verticalAlign=middle;whiteSpace=wrap;rounded=0;" parent="1Rvh8kdgMvsXk_3jxCog-4" vertex="1">
          <mxGeometry y="20" width="110" height="50" as="geometry" />
        </mxCell>
        <mxCell id="1Rvh8kdgMvsXk_3jxCog-7" value="1" style="html=1;dashed=0;whiteSpace=wrap;shape=mxgraph.dfd.dataStoreID;align=left;spacingLeft=3;points=[[0,0],[0.5,0],[1,0],[0,0.5],[1,0.5],[0,1],[0.5,1],[1,1]];" parent="1" vertex="1">
          <mxGeometry x="1775" y="360" width="120" height="30" as="geometry" />
        </mxCell>
        <mxCell id="1Rvh8kdgMvsXk_3jxCog-22" style="edgeStyle=orthogonalEdgeStyle;rounded=0;orthogonalLoop=1;jettySize=auto;html=1;exitX=0;exitY=1;exitDx=0;exitDy=0;entryX=1;entryY=0.5;entryDx=0;entryDy=0;" parent="1" source="1Rvh8kdgMvsXk_3jxCog-8" target="1Rvh8kdgMvsXk_3jxCog-5" edge="1">
          <mxGeometry relative="1" as="geometry">
            <Array as="points">
              <mxPoint x="1820" y="390" />
              <mxPoint x="1820" y="545" />
            </Array>
          </mxGeometry>
        </mxCell>
        <mxCell id="1Rvh8kdgMvsXk_3jxCog-23" value="room schedule detail" style="edgeLabel;html=1;align=center;verticalAlign=middle;resizable=0;points=[];" parent="1Rvh8kdgMvsXk_3jxCog-22" vertex="1" connectable="0">
          <mxGeometry x="0.4527" relative="1" as="geometry">
            <mxPoint as="offset" />
          </mxGeometry>
        </mxCell>
        <mxCell id="1Rvh8kdgMvsXk_3jxCog-8" value="Schedule" style="text;strokeColor=none;align=center;fillColor=none;html=1;verticalAlign=middle;whiteSpace=wrap;rounded=0;" parent="1" vertex="1">
          <mxGeometry x="1825" y="360" width="60" height="30" as="geometry" />
        </mxCell>
        <mxCell id="1Rvh8kdgMvsXk_3jxCog-11" style="edgeStyle=orthogonalEdgeStyle;rounded=0;orthogonalLoop=1;jettySize=auto;html=1;exitX=1;exitY=0.5;exitDx=0;exitDy=0;" parent="1" source="1Rvh8kdgMvsXk_3jxCog-3" target="1Rvh8kdgMvsXk_3jxCog-7" edge="1">
          <mxGeometry relative="1" as="geometry">
            <Array as="points">
              <mxPoint x="1570" y="375" />
            </Array>
          </mxGeometry>
        </mxCell>
        <mxCell id="1Rvh8kdgMvsXk_3jxCog-12" value="reservation details" style="edgeLabel;html=1;align=center;verticalAlign=middle;resizable=0;points=[];" parent="1Rvh8kdgMvsXk_3jxCog-11" vertex="1" connectable="0">
          <mxGeometry x="0.0056" y="3" relative="1" as="geometry">
            <mxPoint as="offset" />
          </mxGeometry>
        </mxCell>
        <mxCell id="1Rvh8kdgMvsXk_3jxCog-15" style="edgeStyle=orthogonalEdgeStyle;rounded=0;orthogonalLoop=1;jettySize=auto;html=1;exitX=0.25;exitY=1;exitDx=0;exitDy=0;entryX=0.25;entryY=0;entryDx=0;entryDy=0;" parent="1" source="1Rvh8kdgMvsXk_3jxCog-3" target="1Rvh8kdgMvsXk_3jxCog-4" edge="1">
          <mxGeometry relative="1" as="geometry" />
        </mxCell>
        <mxCell id="1Rvh8kdgMvsXk_3jxCog-16" value="preferred room and&lt;br&gt;&amp;nbsp;date &amp;amp; time&amp;nbsp;" style="edgeLabel;html=1;align=center;verticalAlign=middle;resizable=0;points=[];" parent="1Rvh8kdgMvsXk_3jxCog-15" vertex="1" connectable="0">
          <mxGeometry x="-0.0907" y="-1" relative="1" as="geometry">
            <mxPoint x="-1" y="19" as="offset" />
          </mxGeometry>
        </mxCell>
        <mxCell id="1Rvh8kdgMvsXk_3jxCog-26" value="3.3" style="swimlane;fontStyle=0;childLayout=stackLayout;horizontal=1;startSize=20;fillColor=#ffffff;horizontalStack=0;resizeParent=1;resizeParentMax=0;resizeLast=0;collapsible=0;marginBottom=0;swimlaneFillColor=#ffffff;rounded=1;shadow=0;glass=0;swimlaneLine=1;" parent="1" vertex="1">
          <mxGeometry x="1460" y="640" width="110" height="70" as="geometry" />
        </mxCell>
        <mxCell id="1Rvh8kdgMvsXk_3jxCog-27" value="cancel reservation" style="text;strokeColor=none;align=center;fillColor=none;html=1;verticalAlign=middle;whiteSpace=wrap;rounded=0;" parent="1Rvh8kdgMvsXk_3jxCog-26" vertex="1">
          <mxGeometry y="20" width="110" height="50" as="geometry" />
        </mxCell>
        <mxCell id="1Rvh8kdgMvsXk_3jxCog-28" style="edgeStyle=orthogonalEdgeStyle;rounded=0;orthogonalLoop=1;jettySize=auto;html=1;exitX=0.5;exitY=1;exitDx=0;exitDy=0;entryX=0.5;entryY=0;entryDx=0;entryDy=0;" parent="1" source="1Rvh8kdgMvsXk_3jxCog-5" target="1Rvh8kdgMvsXk_3jxCog-26" edge="1">
          <mxGeometry relative="1" as="geometry" />
        </mxCell>
        <mxCell id="1Rvh8kdgMvsXk_3jxCog-29" value="no room availability" style="edgeLabel;html=1;align=center;verticalAlign=middle;resizable=0;points=[];" parent="1Rvh8kdgMvsXk_3jxCog-28" vertex="1" connectable="0">
          <mxGeometry x="-0.019" y="-1" relative="1" as="geometry">
            <mxPoint as="offset" />
          </mxGeometry>
        </mxCell>
        <mxCell id="1Rvh8kdgMvsXk_3jxCog-30" style="edgeStyle=orthogonalEdgeStyle;rounded=0;orthogonalLoop=1;jettySize=auto;html=1;exitX=0;exitY=0.5;exitDx=0;exitDy=0;entryX=0.5;entryY=1;entryDx=0;entryDy=0;" parent="1" source="1Rvh8kdgMvsXk_3jxCog-27" target="1Rvh8kdgMvsXk_3jxCog-1" edge="1">
          <mxGeometry relative="1" as="geometry" />
        </mxCell>
        <mxCell id="1Rvh8kdgMvsXk_3jxCog-31" value="reschedule option" style="edgeLabel;html=1;align=center;verticalAlign=middle;resizable=0;points=[];" parent="1Rvh8kdgMvsXk_3jxCog-30" vertex="1" connectable="0">
          <mxGeometry x="-0.4101" y="2" relative="1" as="geometry">
            <mxPoint as="offset" />
          </mxGeometry>
        </mxCell>
        <mxCell id="1Rvh8kdgMvsXk_3jxCog-35" value="&lt;font style=&quot;font-size: 22px;&quot;&gt;Context Diagram&lt;/font&gt;" style="text;strokeColor=none;align=center;fillColor=none;html=1;verticalAlign=middle;whiteSpace=wrap;rounded=0;" parent="1" vertex="1">
          <mxGeometry x="25" y="-110" width="220" height="30" as="geometry" />
        </mxCell>
        <mxCell id="1Rvh8kdgMvsXk_3jxCog-36" value="&lt;span style=&quot;font-size: 22px;&quot;&gt;Level 1&lt;/span&gt;" style="text;strokeColor=none;align=center;fillColor=none;html=1;verticalAlign=middle;whiteSpace=wrap;rounded=0;" parent="1" vertex="1">
          <mxGeometry x="35" y="310" width="220" height="30" as="geometry" />
        </mxCell>
        <mxCell id="1Rvh8kdgMvsXk_3jxCog-38" value="&lt;span style=&quot;font-size: 22px;&quot;&gt;Level 2 of process 2.0&lt;/span&gt;" style="text;strokeColor=none;align=center;fillColor=none;html=1;verticalAlign=middle;whiteSpace=wrap;rounded=0;" parent="1" vertex="1">
          <mxGeometry x="1180" y="-10" width="220" height="30" as="geometry" />
        </mxCell>
        <mxCell id="1Rvh8kdgMvsXk_3jxCog-39" value="&lt;span style=&quot;font-size: 22px;&quot;&gt;Level 2 of process 3.0&lt;/span&gt;" style="text;strokeColor=none;align=center;fillColor=none;html=1;verticalAlign=middle;whiteSpace=wrap;rounded=0;" parent="1" vertex="1">
          <mxGeometry x="1180" y="290" width="220" height="30" as="geometry" />
        </mxCell>
        <mxCell id="1Rvh8kdgMvsXk_3jxCog-50" value="4" style="html=1;dashed=0;whiteSpace=wrap;shape=mxgraph.dfd.dataStoreID;align=left;spacingLeft=3;points=[[0,0],[0.5,0],[1,0],[0,0.5],[1,0.5],[0,1],[0.5,1],[1,1]];" parent="1" vertex="1">
          <mxGeometry x="1630" y="1360" width="120" height="30" as="geometry" />
        </mxCell>
        <mxCell id="BkH_cVfhh0AyO2GWpE25-21" style="edgeStyle=orthogonalEdgeStyle;rounded=0;orthogonalLoop=1;jettySize=auto;html=1;exitX=0.25;exitY=0;exitDx=0;exitDy=0;entryX=0.5;entryY=1;entryDx=0;entryDy=0;" edge="1" parent="1" source="1Rvh8kdgMvsXk_3jxCog-51" target="BkH_cVfhh0AyO2GWpE25-12">
          <mxGeometry relative="1" as="geometry">
            <Array as="points">
              <mxPoint x="1690" y="1360" />
            </Array>
          </mxGeometry>
        </mxCell>
        <mxCell id="BkH_cVfhh0AyO2GWpE25-22" value="room detail" style="edgeLabel;html=1;align=center;verticalAlign=middle;resizable=0;points=[];" vertex="1" connectable="0" parent="BkH_cVfhh0AyO2GWpE25-21">
          <mxGeometry x="0.0272" y="1" relative="1" as="geometry">
            <mxPoint as="offset" />
          </mxGeometry>
        </mxCell>
        <mxCell id="1Rvh8kdgMvsXk_3jxCog-51" value="Room" style="text;strokeColor=none;align=center;fillColor=none;html=1;verticalAlign=middle;whiteSpace=wrap;rounded=0;" parent="1" vertex="1">
          <mxGeometry x="1680" y="1360" width="60" height="30" as="geometry" />
        </mxCell>
        <mxCell id="BkH_cVfhh0AyO2GWpE25-26" style="edgeStyle=orthogonalEdgeStyle;rounded=0;orthogonalLoop=1;jettySize=auto;html=1;exitX=0.5;exitY=0;exitDx=0;exitDy=0;entryX=0.25;entryY=1;entryDx=0;entryDy=0;" edge="1" parent="1" source="1Rvh8kdgMvsXk_3jxCog-54" target="06z1c9G6Tvmy0coM1B6O-75">
          <mxGeometry relative="1" as="geometry">
            <Array as="points">
              <mxPoint x="1470" y="1160" />
              <mxPoint x="1533" y="1160" />
            </Array>
          </mxGeometry>
        </mxCell>
        <mxCell id="BkH_cVfhh0AyO2GWpE25-31" value="availble timeslot" style="edgeLabel;html=1;align=center;verticalAlign=middle;resizable=0;points=[];" vertex="1" connectable="0" parent="BkH_cVfhh0AyO2GWpE25-26">
          <mxGeometry x="-0.4004" y="-1" relative="1" as="geometry">
            <mxPoint as="offset" />
          </mxGeometry>
        </mxCell>
        <mxCell id="1Rvh8kdgMvsXk_3jxCog-54" value="5.3 " style="swimlane;fontStyle=0;childLayout=stackLayout;horizontal=1;startSize=20;fillColor=#ffffff;horizontalStack=0;resizeParent=1;resizeParentMax=0;resizeLast=0;collapsible=0;marginBottom=0;swimlaneFillColor=#ffffff;rounded=1;shadow=0;glass=0;swimlaneLine=1;" parent="1" vertex="1">
          <mxGeometry x="1415" y="1190" width="110" height="70" as="geometry" />
        </mxCell>
        <mxCell id="1Rvh8kdgMvsXk_3jxCog-55" value="check available timeslot" style="text;strokeColor=none;align=center;fillColor=none;html=1;verticalAlign=middle;whiteSpace=wrap;rounded=0;" parent="1Rvh8kdgMvsXk_3jxCog-54" vertex="1">
          <mxGeometry y="20" width="110" height="50" as="geometry" />
        </mxCell>
        <mxCell id="1Rvh8kdgMvsXk_3jxCog-63" style="edgeStyle=orthogonalEdgeStyle;rounded=0;orthogonalLoop=1;jettySize=auto;html=1;exitX=1;exitY=0.5;exitDx=0;exitDy=0;entryX=0;entryY=0.5;entryDx=0;entryDy=0;" parent="1" source="06z1c9G6Tvmy0coM1B6O-75" target="06z1c9G6Tvmy0coM1B6O-82" edge="1">
          <mxGeometry relative="1" as="geometry">
            <Array as="points">
              <mxPoint x="1615" y="1045" />
            </Array>
          </mxGeometry>
        </mxCell>
        <mxCell id="1Rvh8kdgMvsXk_3jxCog-69" value="room schedule information&lt;br&gt;(faculty, timeslot, room, &amp;amp; course)" style="edgeLabel;html=1;align=center;verticalAlign=middle;resizable=0;points=[];" parent="1Rvh8kdgMvsXk_3jxCog-63" vertex="1" connectable="0">
          <mxGeometry x="-0.6402" relative="1" as="geometry">
            <mxPoint x="91" as="offset" />
          </mxGeometry>
        </mxCell>
        <mxCell id="1Rvh8kdgMvsXk_3jxCog-71" value="2" style="html=1;dashed=0;whiteSpace=wrap;shape=mxgraph.dfd.dataStoreID;align=left;spacingLeft=3;points=[[0,0],[0.5,0],[1,0],[0,0.5],[1,0.5],[0,1],[0.5,1],[1,1]];" parent="1" vertex="1">
          <mxGeometry x="1415" y="1360" width="120" height="30" as="geometry" />
        </mxCell>
        <mxCell id="BkH_cVfhh0AyO2GWpE25-19" style="edgeStyle=orthogonalEdgeStyle;rounded=0;orthogonalLoop=1;jettySize=auto;html=1;exitX=0.088;exitY=0.014;exitDx=0;exitDy=0;exitPerimeter=0;" edge="1" parent="1" source="1Rvh8kdgMvsXk_3jxCog-72" target="1Rvh8kdgMvsXk_3jxCog-55">
          <mxGeometry relative="1" as="geometry">
            <Array as="points" />
          </mxGeometry>
        </mxCell>
        <mxCell id="BkH_cVfhh0AyO2GWpE25-20" value="schedule detail" style="edgeLabel;html=1;align=center;verticalAlign=middle;resizable=0;points=[];" vertex="1" connectable="0" parent="BkH_cVfhh0AyO2GWpE25-19">
          <mxGeometry x="-0.0237" relative="1" as="geometry">
            <mxPoint as="offset" />
          </mxGeometry>
        </mxCell>
        <mxCell id="1Rvh8kdgMvsXk_3jxCog-72" value="Schedule" style="text;strokeColor=none;align=center;fillColor=none;html=1;verticalAlign=middle;whiteSpace=wrap;rounded=0;" parent="1" vertex="1">
          <mxGeometry x="1465" y="1360" width="60" height="30" as="geometry" />
        </mxCell>
        <mxCell id="1Rvh8kdgMvsXk_3jxCog-75" value="&lt;span style=&quot;font-size: 22px;&quot;&gt;Level 2 of process 9.0&lt;/span&gt;" style="text;strokeColor=none;align=center;fillColor=none;html=1;verticalAlign=middle;whiteSpace=wrap;rounded=0;" parent="1" vertex="1">
          <mxGeometry x="1180" y="890" width="220" height="30" as="geometry" />
        </mxCell>
        <mxCell id="C5ISWP4q6QMO66TB5Pyt-1" style="edgeStyle=orthogonalEdgeStyle;rounded=0;orthogonalLoop=1;jettySize=auto;html=1;exitX=0;exitY=0.75;exitDx=0;exitDy=0;entryX=0.5;entryY=1;entryDx=0;entryDy=0;" parent="1" source="xQGyqwbRE91OUpETnVlU-50" target="xQGyqwbRE91OUpETnVlU-31" edge="1">
          <mxGeometry relative="1" as="geometry" />
        </mxCell>
        <mxCell id="BkH_cVfhh0AyO2GWpE25-34" value="room or employee schedule" style="edgeLabel;html=1;align=center;verticalAlign=middle;resizable=0;points=[];" vertex="1" connectable="0" parent="C5ISWP4q6QMO66TB5Pyt-1">
          <mxGeometry x="-0.1224" y="2" relative="1" as="geometry">
            <mxPoint x="-11" y="-4" as="offset" />
          </mxGeometry>
        </mxCell>
        <mxCell id="C5ISWP4q6QMO66TB5Pyt-2" style="edgeStyle=orthogonalEdgeStyle;rounded=0;orthogonalLoop=1;jettySize=auto;html=1;exitX=0.25;exitY=1;exitDx=0;exitDy=0;entryX=0.278;entryY=-0.023;entryDx=0;entryDy=0;entryPerimeter=0;" parent="1" source="xQGyqwbRE91OUpETnVlU-10" target="xQGyqwbRE91OUpETnVlU-1" edge="1">
          <mxGeometry relative="1" as="geometry">
            <Array as="points">
              <mxPoint x="390" y="5" />
            </Array>
          </mxGeometry>
        </mxCell>
        <mxCell id="C5ISWP4q6QMO66TB5Pyt-3" value="room details" style="edgeLabel;html=1;align=center;verticalAlign=middle;resizable=0;points=[];" parent="C5ISWP4q6QMO66TB5Pyt-2" vertex="1" connectable="0">
          <mxGeometry x="0.2723" y="-1" relative="1" as="geometry">
            <mxPoint as="offset" />
          </mxGeometry>
        </mxCell>
        <mxCell id="xQGyqwbRE91OUpETnVlU-11" style="edgeStyle=orthogonalEdgeStyle;rounded=0;orthogonalLoop=1;jettySize=auto;html=1;exitX=0.5;exitY=1;exitDx=0;exitDy=0;" parent="1" edge="1">
          <mxGeometry relative="1" as="geometry">
            <mxPoint x="469.9999999999998" y="4.999999999999773" as="sourcePoint" />
            <mxPoint x="430.0000000000002" y="154.99999999999977" as="targetPoint" />
            <Array as="points">
              <mxPoint x="430" y="5" />
            </Array>
          </mxGeometry>
        </mxCell>
        <mxCell id="xQGyqwbRE91OUpETnVlU-16" value="employee credentials" style="edgeLabel;html=1;align=center;verticalAlign=middle;resizable=0;points=[];" parent="xQGyqwbRE91OUpETnVlU-11" vertex="1" connectable="0">
          <mxGeometry x="-0.3174" y="1" relative="1" as="geometry">
            <mxPoint x="-1" y="5" as="offset" />
          </mxGeometry>
        </mxCell>
        <mxCell id="C5ISWP4q6QMO66TB5Pyt-4" style="edgeStyle=orthogonalEdgeStyle;rounded=0;orthogonalLoop=1;jettySize=auto;html=1;exitX=1;exitY=0.75;exitDx=0;exitDy=0;entryX=0.954;entryY=0.208;entryDx=0;entryDy=0;entryPerimeter=0;" parent="1" source="xQGyqwbRE91OUpETnVlU-10" target="xQGyqwbRE91OUpETnVlU-1" edge="1">
          <mxGeometry relative="1" as="geometry" />
        </mxCell>
        <mxCell id="C5ISWP4q6QMO66TB5Pyt-5" value="&amp;nbsp;" style="edgeLabel;html=1;align=center;verticalAlign=middle;resizable=0;points=[];" parent="C5ISWP4q6QMO66TB5Pyt-4" vertex="1" connectable="0">
          <mxGeometry x="0.3849" relative="1" as="geometry">
            <mxPoint as="offset" />
          </mxGeometry>
        </mxCell>
        <mxCell id="BkH_cVfhh0AyO2GWpE25-8" value="employee details" style="edgeLabel;html=1;align=center;verticalAlign=middle;resizable=0;points=[];" vertex="1" connectable="0" parent="C5ISWP4q6QMO66TB5Pyt-4">
          <mxGeometry x="0.3963" y="-3" relative="1" as="geometry">
            <mxPoint as="offset" />
          </mxGeometry>
        </mxCell>
        <mxCell id="C5ISWP4q6QMO66TB5Pyt-6" style="edgeStyle=orthogonalEdgeStyle;rounded=0;orthogonalLoop=1;jettySize=auto;html=1;exitX=0;exitY=0.75;exitDx=0;exitDy=0;entryX=0;entryY=0;entryDx=11.719999999999999;entryDy=11.720000000000002;entryPerimeter=0;" parent="1" source="xQGyqwbRE91OUpETnVlU-10" edge="1">
          <mxGeometry relative="1" as="geometry">
            <mxPoint x="375" y="-4.220000000000001" as="sourcePoint" />
            <mxPoint x="346.7199999999999" y="170.00000000000026" as="targetPoint" />
          </mxGeometry>
        </mxCell>
        <mxCell id="C5ISWP4q6QMO66TB5Pyt-7" value="course details" style="edgeLabel;html=1;align=center;verticalAlign=middle;resizable=0;points=[];" parent="C5ISWP4q6QMO66TB5Pyt-6" vertex="1" connectable="0">
          <mxGeometry x="-0.0208" y="1" relative="1" as="geometry">
            <mxPoint as="offset" />
          </mxGeometry>
        </mxCell>
        <mxCell id="C5ISWP4q6QMO66TB5Pyt-24" style="edgeStyle=orthogonalEdgeStyle;rounded=0;orthogonalLoop=1;jettySize=auto;html=1;exitX=1;exitY=0.5;exitDx=0;exitDy=0;entryX=0;entryY=0.5;entryDx=0;entryDy=0;" parent="1" source="C5ISWP4q6QMO66TB5Pyt-8" target="C5ISWP4q6QMO66TB5Pyt-15" edge="1">
          <mxGeometry relative="1" as="geometry" />
        </mxCell>
        <mxCell id="C5ISWP4q6QMO66TB5Pyt-25" value="personal details&amp;nbsp;&lt;br style=&quot;border-color: var(--border-color);&quot;&gt;and credentials" style="edgeLabel;html=1;align=center;verticalAlign=middle;resizable=0;points=[];" parent="C5ISWP4q6QMO66TB5Pyt-24" vertex="1" connectable="0">
          <mxGeometry x="-0.2455" y="-2" relative="1" as="geometry">
            <mxPoint as="offset" />
          </mxGeometry>
        </mxCell>
        <mxCell id="C5ISWP4q6QMO66TB5Pyt-26" style="edgeStyle=orthogonalEdgeStyle;rounded=0;orthogonalLoop=1;jettySize=auto;html=1;exitX=0.75;exitY=1;exitDx=0;exitDy=0;entryX=0;entryY=0.5;entryDx=0;entryDy=0;" parent="1" source="C5ISWP4q6QMO66TB5Pyt-8" target="C5ISWP4q6QMO66TB5Pyt-10" edge="1">
          <mxGeometry relative="1" as="geometry" />
        </mxCell>
        <mxCell id="C5ISWP4q6QMO66TB5Pyt-27" value="course code&amp;nbsp;&lt;br style=&quot;border-color: var(--border-color);&quot;&gt;and description" style="edgeLabel;html=1;align=center;verticalAlign=middle;resizable=0;points=[];" parent="C5ISWP4q6QMO66TB5Pyt-26" vertex="1" connectable="0">
          <mxGeometry x="0.2193" y="-1" relative="1" as="geometry">
            <mxPoint as="offset" />
          </mxGeometry>
        </mxCell>
        <mxCell id="C5ISWP4q6QMO66TB5Pyt-28" style="edgeStyle=orthogonalEdgeStyle;rounded=0;orthogonalLoop=1;jettySize=auto;html=1;entryX=0;entryY=0.5;entryDx=0;entryDy=0;" parent="1" target="C5ISWP4q6QMO66TB5Pyt-17" edge="1">
          <mxGeometry relative="1" as="geometry">
            <mxPoint x="95" y="1080" as="sourcePoint" />
            <Array as="points">
              <mxPoint x="95" y="1080" />
              <mxPoint x="95" y="1345" />
            </Array>
          </mxGeometry>
        </mxCell>
        <mxCell id="C5ISWP4q6QMO66TB5Pyt-29" value="room capacity&amp;nbsp;&lt;br style=&quot;border-color: var(--border-color);&quot;&gt;and tyoe" style="edgeLabel;html=1;align=center;verticalAlign=middle;resizable=0;points=[];" parent="C5ISWP4q6QMO66TB5Pyt-28" vertex="1" connectable="0">
          <mxGeometry x="0.4031" relative="1" as="geometry">
            <mxPoint as="offset" />
          </mxGeometry>
        </mxCell>
        <mxCell id="C5ISWP4q6QMO66TB5Pyt-60" style="edgeStyle=orthogonalEdgeStyle;rounded=0;orthogonalLoop=1;jettySize=auto;html=1;exitX=0.25;exitY=1;exitDx=0;exitDy=0;entryX=0;entryY=0.5;entryDx=0;entryDy=0;" parent="1" source="C5ISWP4q6QMO66TB5Pyt-8" target="C5ISWP4q6QMO66TB5Pyt-54" edge="1">
          <mxGeometry relative="1" as="geometry" />
        </mxCell>
        <mxCell id="C5ISWP4q6QMO66TB5Pyt-61" value="room schedule&amp;nbsp;detail" style="edgeLabel;html=1;align=center;verticalAlign=middle;resizable=0;points=[];" parent="C5ISWP4q6QMO66TB5Pyt-60" vertex="1" connectable="0">
          <mxGeometry x="0.4442" y="-2" relative="1" as="geometry">
            <mxPoint x="31" y="-2" as="offset" />
          </mxGeometry>
        </mxCell>
        <mxCell id="C5ISWP4q6QMO66TB5Pyt-68" style="edgeStyle=orthogonalEdgeStyle;rounded=0;orthogonalLoop=1;jettySize=auto;html=1;exitX=0;exitY=1;exitDx=0;exitDy=0;entryX=0;entryY=0.5;entryDx=0;entryDy=0;" parent="1" source="C5ISWP4q6QMO66TB5Pyt-8" target="C5ISWP4q6QMO66TB5Pyt-57" edge="1">
          <mxGeometry relative="1" as="geometry" />
        </mxCell>
        <mxCell id="C5ISWP4q6QMO66TB5Pyt-69" value="rooms schedule modification details" style="edgeLabel;html=1;align=center;verticalAlign=middle;resizable=0;points=[];" parent="C5ISWP4q6QMO66TB5Pyt-68" vertex="1" connectable="0">
          <mxGeometry x="0.4546" y="-3" relative="1" as="geometry">
            <mxPoint x="73" y="-3" as="offset" />
          </mxGeometry>
        </mxCell>
        <mxCell id="C5ISWP4q6QMO66TB5Pyt-8" value="secretary" style="html=1;dashed=0;whiteSpace=wrap;" parent="1" vertex="1">
          <mxGeometry x="40" y="1030" width="100" height="50" as="geometry" />
        </mxCell>
        <mxCell id="C5ISWP4q6QMO66TB5Pyt-9" value="6.0" style="swimlane;fontStyle=0;childLayout=stackLayout;horizontal=1;startSize=20;fillColor=#ffffff;horizontalStack=0;resizeParent=1;resizeParentMax=0;resizeLast=0;collapsible=0;marginBottom=0;swimlaneFillColor=#ffffff;rounded=1;shadow=0;glass=0;swimlaneLine=1;" parent="1" vertex="1">
          <mxGeometry x="337.5" y="1150" width="110" height="70" as="geometry" />
        </mxCell>
        <mxCell id="C5ISWP4q6QMO66TB5Pyt-10" value="add course information" style="text;strokeColor=none;align=center;fillColor=none;html=1;verticalAlign=middle;whiteSpace=wrap;rounded=0;" parent="C5ISWP4q6QMO66TB5Pyt-9" vertex="1">
          <mxGeometry y="20" width="110" height="50" as="geometry" />
        </mxCell>
        <mxCell id="C5ISWP4q6QMO66TB5Pyt-14" value="5.0" style="swimlane;fontStyle=0;childLayout=stackLayout;horizontal=1;startSize=20;fillColor=#ffffff;horizontalStack=0;resizeParent=1;resizeParentMax=0;resizeLast=0;collapsible=0;marginBottom=0;swimlaneFillColor=#ffffff;rounded=1;shadow=0;glass=0;swimlaneLine=1;" parent="1" vertex="1">
          <mxGeometry x="337.5" y="1010" width="110" height="70" as="geometry" />
        </mxCell>
        <mxCell id="C5ISWP4q6QMO66TB5Pyt-15" value="add employee information" style="text;strokeColor=none;align=center;fillColor=none;html=1;verticalAlign=middle;whiteSpace=wrap;rounded=0;" parent="C5ISWP4q6QMO66TB5Pyt-14" vertex="1">
          <mxGeometry y="20" width="110" height="50" as="geometry" />
        </mxCell>
        <mxCell id="C5ISWP4q6QMO66TB5Pyt-16" value="7.0" style="swimlane;fontStyle=0;childLayout=stackLayout;horizontal=1;startSize=20;fillColor=#ffffff;horizontalStack=0;resizeParent=1;resizeParentMax=0;resizeLast=0;collapsible=0;marginBottom=0;swimlaneFillColor=#ffffff;rounded=1;shadow=0;glass=0;swimlaneLine=1;" parent="1" vertex="1">
          <mxGeometry x="337.5" y="1300" width="110" height="70" as="geometry" />
        </mxCell>
        <mxCell id="C5ISWP4q6QMO66TB5Pyt-17" value="add room information" style="text;strokeColor=none;align=center;fillColor=none;html=1;verticalAlign=middle;whiteSpace=wrap;rounded=0;" parent="C5ISWP4q6QMO66TB5Pyt-16" vertex="1">
          <mxGeometry y="20" width="110" height="50" as="geometry" />
        </mxCell>
        <mxCell id="C5ISWP4q6QMO66TB5Pyt-18" value="3" style="html=1;dashed=0;whiteSpace=wrap;shape=mxgraph.dfd.dataStoreID;align=left;spacingLeft=3;points=[[0,0],[0.5,0],[1,0],[0,0.5],[1,0.5],[0,1],[0.5,1],[1,1]];" parent="1" vertex="1">
          <mxGeometry x="635" y="1160" width="120" height="30" as="geometry" />
        </mxCell>
        <mxCell id="C5ISWP4q6QMO66TB5Pyt-19" value="Course" style="text;strokeColor=none;align=center;fillColor=none;html=1;verticalAlign=middle;whiteSpace=wrap;rounded=0;" parent="1" vertex="1">
          <mxGeometry x="685" y="1160" width="60" height="30" as="geometry" />
        </mxCell>
        <mxCell id="C5ISWP4q6QMO66TB5Pyt-20" value="2" style="html=1;dashed=0;whiteSpace=wrap;shape=mxgraph.dfd.dataStoreID;align=left;spacingLeft=3;points=[[0,0],[0.5,0],[1,0],[0,0.5],[1,0.5],[0,1],[0.5,1],[1,1]];" parent="1" vertex="1">
          <mxGeometry x="645" y="1040" width="120" height="30" as="geometry" />
        </mxCell>
        <mxCell id="C5ISWP4q6QMO66TB5Pyt-21" value="Employee" style="text;strokeColor=none;align=center;fillColor=none;html=1;verticalAlign=middle;whiteSpace=wrap;rounded=0;" parent="1" vertex="1">
          <mxGeometry x="695" y="1040" width="60" height="30" as="geometry" />
        </mxCell>
        <mxCell id="C5ISWP4q6QMO66TB5Pyt-22" value="4" style="html=1;dashed=0;whiteSpace=wrap;shape=mxgraph.dfd.dataStoreID;align=left;spacingLeft=3;points=[[0,0],[0.5,0],[1,0],[0,0.5],[1,0.5],[0,1],[0.5,1],[1,1]];" parent="1" vertex="1">
          <mxGeometry x="645" y="1330" width="120" height="30" as="geometry" />
        </mxCell>
        <mxCell id="C5ISWP4q6QMO66TB5Pyt-23" value="Room" style="text;strokeColor=none;align=center;fillColor=none;html=1;verticalAlign=middle;whiteSpace=wrap;rounded=0;" parent="1" vertex="1">
          <mxGeometry x="695" y="1330" width="60" height="30" as="geometry" />
        </mxCell>
        <mxCell id="C5ISWP4q6QMO66TB5Pyt-30" style="edgeStyle=orthogonalEdgeStyle;rounded=0;orthogonalLoop=1;jettySize=auto;html=1;exitX=1;exitY=0.5;exitDx=0;exitDy=0;entryX=0;entryY=0.5;entryDx=0;entryDy=0;" parent="1" source="C5ISWP4q6QMO66TB5Pyt-15" target="C5ISWP4q6QMO66TB5Pyt-20" edge="1">
          <mxGeometry relative="1" as="geometry" />
        </mxCell>
        <mxCell id="C5ISWP4q6QMO66TB5Pyt-33" value="employee information" style="edgeLabel;html=1;align=center;verticalAlign=middle;resizable=0;points=[];" parent="C5ISWP4q6QMO66TB5Pyt-30" vertex="1" connectable="0">
          <mxGeometry x="-0.1579" relative="1" as="geometry">
            <mxPoint as="offset" />
          </mxGeometry>
        </mxCell>
        <mxCell id="C5ISWP4q6QMO66TB5Pyt-31" style="edgeStyle=orthogonalEdgeStyle;rounded=0;orthogonalLoop=1;jettySize=auto;html=1;exitX=1;exitY=0.25;exitDx=0;exitDy=0;" parent="1" source="C5ISWP4q6QMO66TB5Pyt-10" target="C5ISWP4q6QMO66TB5Pyt-18" edge="1">
          <mxGeometry relative="1" as="geometry">
            <Array as="points">
              <mxPoint x="545" y="1183" />
              <mxPoint x="545" y="1180" />
            </Array>
          </mxGeometry>
        </mxCell>
        <mxCell id="C5ISWP4q6QMO66TB5Pyt-36" value="course infromation" style="edgeLabel;html=1;align=center;verticalAlign=middle;resizable=0;points=[];" parent="C5ISWP4q6QMO66TB5Pyt-31" vertex="1" connectable="0">
          <mxGeometry x="-0.0174" y="-2" relative="1" as="geometry">
            <mxPoint x="-2" y="-5" as="offset" />
          </mxGeometry>
        </mxCell>
        <mxCell id="C5ISWP4q6QMO66TB5Pyt-32" style="edgeStyle=orthogonalEdgeStyle;rounded=0;orthogonalLoop=1;jettySize=auto;html=1;exitX=1;exitY=0.5;exitDx=0;exitDy=0;entryX=0;entryY=0.5;entryDx=0;entryDy=0;" parent="1" source="C5ISWP4q6QMO66TB5Pyt-17" target="C5ISWP4q6QMO66TB5Pyt-22" edge="1">
          <mxGeometry relative="1" as="geometry" />
        </mxCell>
        <mxCell id="C5ISWP4q6QMO66TB5Pyt-37" value="room information" style="edgeLabel;html=1;align=center;verticalAlign=middle;resizable=0;points=[];" parent="C5ISWP4q6QMO66TB5Pyt-32" vertex="1" connectable="0">
          <mxGeometry x="-0.1579" relative="1" as="geometry">
            <mxPoint as="offset" />
          </mxGeometry>
        </mxCell>
        <mxCell id="C5ISWP4q6QMO66TB5Pyt-53" value="8.0" style="swimlane;fontStyle=0;childLayout=stackLayout;horizontal=1;startSize=20;fillColor=#ffffff;horizontalStack=0;resizeParent=1;resizeParentMax=0;resizeLast=0;collapsible=0;marginBottom=0;swimlaneFillColor=#ffffff;rounded=1;shadow=0;glass=0;swimlaneLine=1;" parent="1" vertex="1">
          <mxGeometry x="340" y="1447" width="110" height="70" as="geometry" />
        </mxCell>
        <mxCell id="C5ISWP4q6QMO66TB5Pyt-54" value="input schedule" style="text;strokeColor=none;align=center;fillColor=none;html=1;verticalAlign=middle;whiteSpace=wrap;rounded=0;" parent="C5ISWP4q6QMO66TB5Pyt-53" vertex="1">
          <mxGeometry y="20" width="110" height="50" as="geometry" />
        </mxCell>
        <mxCell id="C5ISWP4q6QMO66TB5Pyt-56" value="9.0" style="swimlane;fontStyle=0;childLayout=stackLayout;horizontal=1;startSize=20;fillColor=#ffffff;horizontalStack=0;resizeParent=1;resizeParentMax=0;resizeLast=0;collapsible=0;marginBottom=0;swimlaneFillColor=#ffffff;rounded=1;shadow=0;glass=0;swimlaneLine=1;" parent="1" vertex="1">
          <mxGeometry x="337.5" y="1567" width="110" height="70" as="geometry" />
        </mxCell>
        <mxCell id="C5ISWP4q6QMO66TB5Pyt-57" value="modify/update rooms schedule" style="text;strokeColor=none;align=center;fillColor=none;html=1;verticalAlign=middle;whiteSpace=wrap;rounded=0;" parent="C5ISWP4q6QMO66TB5Pyt-56" vertex="1">
          <mxGeometry y="20" width="110" height="50" as="geometry" />
        </mxCell>
        <mxCell id="C5ISWP4q6QMO66TB5Pyt-63" value="1" style="html=1;dashed=0;whiteSpace=wrap;shape=mxgraph.dfd.dataStoreID;align=left;spacingLeft=3;points=[[0,0],[0.5,0],[1,0],[0,0.5],[1,0.5],[0,1],[0.5,1],[1,1]];" parent="1" vertex="1">
          <mxGeometry x="645" y="1467" width="120" height="30" as="geometry" />
        </mxCell>
        <mxCell id="C5ISWP4q6QMO66TB5Pyt-64" value="Schedule" style="text;strokeColor=none;align=center;fillColor=none;html=1;verticalAlign=middle;whiteSpace=wrap;rounded=0;" parent="1" vertex="1">
          <mxGeometry x="695" y="1467" width="60" height="30" as="geometry" />
        </mxCell>
        <mxCell id="C5ISWP4q6QMO66TB5Pyt-62" style="edgeStyle=orthogonalEdgeStyle;rounded=0;orthogonalLoop=1;jettySize=auto;html=1;exitX=1;exitY=0.25;exitDx=0;exitDy=0;entryX=0;entryY=0.5;entryDx=0;entryDy=0;" parent="1" source="C5ISWP4q6QMO66TB5Pyt-54" target="C5ISWP4q6QMO66TB5Pyt-63" edge="1">
          <mxGeometry relative="1" as="geometry">
            <mxPoint x="615" y="1480.5239257812502" as="targetPoint" />
          </mxGeometry>
        </mxCell>
        <mxCell id="C5ISWP4q6QMO66TB5Pyt-65" value="approved rooms schedule" style="edgeLabel;html=1;align=center;verticalAlign=middle;resizable=0;points=[];" parent="C5ISWP4q6QMO66TB5Pyt-62" vertex="1" connectable="0">
          <mxGeometry x="-0.1238" y="-6" relative="1" as="geometry">
            <mxPoint x="8" y="-4" as="offset" />
          </mxGeometry>
        </mxCell>
        <mxCell id="C5ISWP4q6QMO66TB5Pyt-66" style="edgeStyle=orthogonalEdgeStyle;rounded=0;orthogonalLoop=1;jettySize=auto;html=1;exitX=1;exitY=0.5;exitDx=0;exitDy=0;entryX=0.25;entryY=1;entryDx=0;entryDy=0;" parent="1" source="C5ISWP4q6QMO66TB5Pyt-57" target="C5ISWP4q6QMO66TB5Pyt-64" edge="1">
          <mxGeometry relative="1" as="geometry" />
        </mxCell>
        <mxCell id="C5ISWP4q6QMO66TB5Pyt-67" value="updated rooms schedule" style="edgeLabel;html=1;align=center;verticalAlign=middle;resizable=0;points=[];" parent="C5ISWP4q6QMO66TB5Pyt-66" vertex="1" connectable="0">
          <mxGeometry x="-0.5098" y="-1" relative="1" as="geometry">
            <mxPoint x="40" y="-1" as="offset" />
          </mxGeometry>
        </mxCell>
        <mxCell id="BkH_cVfhh0AyO2GWpE25-25" style="edgeStyle=orthogonalEdgeStyle;rounded=0;orthogonalLoop=1;jettySize=auto;html=1;exitX=0.5;exitY=0;exitDx=0;exitDy=0;entryX=0;entryY=1;entryDx=0;entryDy=0;" edge="1" parent="1" source="BkH_cVfhh0AyO2GWpE25-9" target="06z1c9G6Tvmy0coM1B6O-75">
          <mxGeometry relative="1" as="geometry" />
        </mxCell>
        <mxCell id="BkH_cVfhh0AyO2GWpE25-32" value="available faculty" style="edgeLabel;html=1;align=center;verticalAlign=middle;resizable=0;points=[];" vertex="1" connectable="0" parent="BkH_cVfhh0AyO2GWpE25-25">
          <mxGeometry x="-0.2415" relative="1" as="geometry">
            <mxPoint x="33" as="offset" />
          </mxGeometry>
        </mxCell>
        <mxCell id="BkH_cVfhh0AyO2GWpE25-9" value="5.2" style="swimlane;fontStyle=0;childLayout=stackLayout;horizontal=1;startSize=20;fillColor=#ffffff;horizontalStack=0;resizeParent=1;resizeParentMax=0;resizeLast=0;collapsible=0;marginBottom=0;swimlaneFillColor=#ffffff;rounded=1;shadow=0;glass=0;swimlaneLine=1;" vertex="1" parent="1">
          <mxGeometry x="1200" y="1190" width="110" height="70" as="geometry" />
        </mxCell>
        <mxCell id="BkH_cVfhh0AyO2GWpE25-10" value="check available faculty" style="text;strokeColor=none;align=center;fillColor=none;html=1;verticalAlign=middle;whiteSpace=wrap;rounded=0;" vertex="1" parent="BkH_cVfhh0AyO2GWpE25-9">
          <mxGeometry y="20" width="110" height="50" as="geometry" />
        </mxCell>
        <mxCell id="BkH_cVfhh0AyO2GWpE25-27" style="edgeStyle=orthogonalEdgeStyle;rounded=0;orthogonalLoop=1;jettySize=auto;html=1;exitX=0.5;exitY=0;exitDx=0;exitDy=0;entryX=0.75;entryY=1;entryDx=0;entryDy=0;" edge="1" parent="1" source="BkH_cVfhh0AyO2GWpE25-11" target="06z1c9G6Tvmy0coM1B6O-75">
          <mxGeometry relative="1" as="geometry">
            <Array as="points">
              <mxPoint x="1690" y="1160" />
              <mxPoint x="1588" y="1160" />
            </Array>
          </mxGeometry>
        </mxCell>
        <mxCell id="BkH_cVfhh0AyO2GWpE25-30" value="available room" style="edgeLabel;html=1;align=center;verticalAlign=middle;resizable=0;points=[];" vertex="1" connectable="0" parent="BkH_cVfhh0AyO2GWpE25-27">
          <mxGeometry x="-0.09" y="1" relative="1" as="geometry">
            <mxPoint x="17" y="-1" as="offset" />
          </mxGeometry>
        </mxCell>
        <mxCell id="BkH_cVfhh0AyO2GWpE25-11" value="5.4" style="swimlane;fontStyle=0;childLayout=stackLayout;horizontal=1;startSize=20;fillColor=#ffffff;horizontalStack=0;resizeParent=1;resizeParentMax=0;resizeLast=0;collapsible=0;marginBottom=0;swimlaneFillColor=#ffffff;rounded=1;shadow=0;glass=0;swimlaneLine=1;" vertex="1" parent="1">
          <mxGeometry x="1635" y="1190" width="110" height="70" as="geometry" />
        </mxCell>
        <mxCell id="BkH_cVfhh0AyO2GWpE25-12" value="check available room" style="text;strokeColor=none;align=center;fillColor=none;html=1;verticalAlign=middle;whiteSpace=wrap;rounded=0;" vertex="1" parent="BkH_cVfhh0AyO2GWpE25-11">
          <mxGeometry y="20" width="110" height="50" as="geometry" />
        </mxCell>
        <mxCell id="BkH_cVfhh0AyO2GWpE25-13" value="5.5" style="swimlane;fontStyle=0;childLayout=stackLayout;horizontal=1;startSize=20;fillColor=#ffffff;horizontalStack=0;resizeParent=1;resizeParentMax=0;resizeLast=0;collapsible=0;marginBottom=0;swimlaneFillColor=#ffffff;rounded=1;shadow=0;glass=0;swimlaneLine=1;" vertex="1" parent="1">
          <mxGeometry x="1820" y="1190" width="110" height="70" as="geometry" />
        </mxCell>
        <mxCell id="BkH_cVfhh0AyO2GWpE25-14" value="check available course" style="text;strokeColor=none;align=center;fillColor=none;html=1;verticalAlign=middle;whiteSpace=wrap;rounded=0;" vertex="1" parent="BkH_cVfhh0AyO2GWpE25-13">
          <mxGeometry y="20" width="110" height="50" as="geometry" />
        </mxCell>
        <mxCell id="BkH_cVfhh0AyO2GWpE25-28" style="edgeStyle=orthogonalEdgeStyle;rounded=0;orthogonalLoop=1;jettySize=auto;html=1;exitX=0.5;exitY=0;exitDx=0;exitDy=0;entryX=0.981;entryY=0.903;entryDx=0;entryDy=0;entryPerimeter=0;" edge="1" parent="1" source="BkH_cVfhh0AyO2GWpE25-13" target="06z1c9G6Tvmy0coM1B6O-75">
          <mxGeometry relative="1" as="geometry" />
        </mxCell>
        <mxCell id="BkH_cVfhh0AyO2GWpE25-29" value="available course" style="edgeLabel;html=1;align=center;verticalAlign=middle;resizable=0;points=[];" vertex="1" connectable="0" parent="BkH_cVfhh0AyO2GWpE25-28">
          <mxGeometry x="0.0297" y="-2" relative="1" as="geometry">
            <mxPoint as="offset" />
          </mxGeometry>
        </mxCell>
        <mxCell id="BkH_cVfhh0AyO2GWpE25-35" style="edgeStyle=orthogonalEdgeStyle;rounded=0;orthogonalLoop=1;jettySize=auto;html=1;exitX=0;exitY=0.5;exitDx=0;exitDy=0;entryX=1;entryY=0.5;entryDx=0;entryDy=0;" edge="1" parent="1">
          <mxGeometry relative="1" as="geometry">
            <mxPoint x="1460" y="120" as="sourcePoint" />
            <mxPoint x="1305" y="120" as="targetPoint" />
          </mxGeometry>
        </mxCell>
        <mxCell id="BkH_cVfhh0AyO2GWpE25-36" value="room schedule" style="edgeLabel;html=1;align=center;verticalAlign=middle;resizable=0;points=[];" vertex="1" connectable="0" parent="BkH_cVfhh0AyO2GWpE25-35">
          <mxGeometry x="0.2363" y="1" relative="1" as="geometry">
            <mxPoint as="offset" />
          </mxGeometry>
        </mxCell>
        <mxCell id="BkH_cVfhh0AyO2GWpE25-37" style="edgeStyle=orthogonalEdgeStyle;rounded=0;orthogonalLoop=1;jettySize=auto;html=1;exitX=0;exitY=0.25;exitDx=0;exitDy=0;entryX=0.75;entryY=1;entryDx=0;entryDy=0;" edge="1" parent="1" source="06z1c9G6Tvmy0coM1B6O-62" target="06z1c9G6Tvmy0coM1B6O-56">
          <mxGeometry relative="1" as="geometry" />
        </mxCell>
        <mxCell id="BkH_cVfhh0AyO2GWpE25-38" value="employee schedule" style="edgeLabel;html=1;align=center;verticalAlign=middle;resizable=0;points=[];" vertex="1" connectable="0" parent="BkH_cVfhh0AyO2GWpE25-37">
          <mxGeometry x="-0.0116" relative="1" as="geometry">
            <mxPoint as="offset" />
          </mxGeometry>
        </mxCell>
      </root>
    </mxGraphModel>
  </diagram>
</mxfile>
